<svg xmlns="http://www.w3.org/2000/svg" xmlns:xlink="http://www.w3.org/1999/xlink" width="1000" zoomAndPan="magnify" viewBox="0 0 750 749.999995" height="1000" preserveAspectRatio="xMidYMid meet" version="1.2"><defs><clipPath id="43ada89708"><path d="M 375 0 C 167.894531 0 0 167.894531 0 375 C 0 582.105469 167.894531 750 375 750 C 582.105469 750 750 582.105469 750 375 C 750 167.894531 582.105469 0 375 0 Z M 375 0 "/></clipPath></defs><g id="65153856de"><g clip-rule="nonzero" clip-path="url(#43ada89708)"><rect x="0" width="750" y="0" height="749.999995" style="fill:#0a1f44;fill-opacity:1;stroke:none;"/></g><g style="fill:#ffffff;fill-opacity:1;"><g transform="translate(131.245965, 477.646564)"><path style="stroke:none" d="M 90.648438 -197.046875 C 90 -195.101562 89.675781 -193.527344 89.675781 -192.324219 C 89.675781 -190.726562 89.964844 -189.039062 90.546875 -187.261719 C 91.378906 -184.71875 92.683594 -182.402344 94.457031 -180.316406 C 94.65625 -180.082031 94.824219 -179.894531 94.964844 -179.761719 C 94.921875 -179.804688 94.828125 -179.882812 94.6875 -180 C 94.035156 -180.542969 93.140625 -181.191406 92.011719 -181.945312 L 91.40625 -182.347656 L 90.820312 -182.777344 C 85.121094 -186.957031 80.644531 -191.050781 77.394531 -195.050781 C 73.160156 -200.257812 70.445312 -206.125 69.242188 -212.652344 C 68.148438 -218.597656 68.421875 -224.582031 70.066406 -230.605469 L 101.351562 -222.074219 L 69.640625 -228.867188 C 71.042969 -235.398438 73.734375 -241.1875 77.714844 -246.230469 C 82.054688 -251.730469 87.503906 -255.84375 94.066406 -258.578125 C 100.824219 -261.394531 109.363281 -262.804688 119.683594 -262.804688 L 217.921875 -262.804688 C 228.828125 -262.804688 238.195312 -260.421875 246.023438 -255.652344 C 251.632812 -252.242188 256.113281 -247.90625 259.476562 -242.644531 C 263.539062 -236.285156 265.570312 -229.3125 265.570312 -221.726562 C 265.570312 -216.652344 264.535156 -211.359375 262.46875 -205.84375 L 262.207031 -205.144531 L 261.910156 -204.457031 C 259.578125 -199.015625 256.308594 -194.1875 252.09375 -189.976562 C 248.683594 -186.566406 245.136719 -183.835938 241.453125 -181.789062 C 243.0625 -182.683594 244.707031 -183.972656 246.386719 -185.652344 L 243.238281 -182.5 L 239.355469 -180.316406 C 238.863281 -180.042969 238.480469 -179.800781 238.210938 -179.59375 L 238.1875 -179.574219 C 238.269531 -179.648438 238.359375 -179.738281 238.457031 -179.851562 C 239.3125 -180.789062 239.914062 -181.613281 240.269531 -182.320312 C 240.101562 -181.988281 239.882812 -181.371094 239.605469 -180.460938 L 205.882812 -61.382812 C 196.90625 -29.652344 181.03125 -5.644531 158.265625 10.636719 C 136.023438 26.546875 108.171875 34.503906 74.714844 34.503906 C 52.597656 34.503906 33.359375 31.066406 17.003906 24.183594 C -1.011719 16.609375 -14.914062 5.929688 -24.707031 -7.851562 C -34.929688 -22.238281 -40.039062 -38.070312 -40.039062 -55.34375 C -40.039062 -63.445312 -38.929688 -71.375 -36.714844 -79.128906 C -31.648438 -96.667969 -22.5 -110.269531 -9.265625 -119.929688 C 3.695312 -129.394531 18.199219 -134.125 34.246094 -134.125 C 43.511719 -134.125 52.035156 -132.605469 59.8125 -129.5625 C 68.621094 -126.113281 76.136719 -120.894531 82.351562 -113.902344 C 93.34375 -101.53125 98.84375 -86.394531 98.84375 -68.488281 C 98.84375 -60.617188 97.734375 -52.808594 95.519531 -45.050781 C 90.421875 -27.214844 80.441406 -13.789062 65.582031 -4.78125 L 48.773438 -32.515625 L 65.960938 -60.015625 C 64.390625 -60.996094 62.929688 -61.484375 61.570312 -61.484375 C 58.285156 -61.484375 55.226562 -60.683594 52.394531 -59.074219 C 50.683594 -58.101562 49.410156 -57.070312 48.574219 -55.972656 C 49.816406 -57.605469 51.144531 -60.863281 52.558594 -65.746094 L 90.445312 -196.4375 Z M 152.179688 -176.535156 L 121.414062 -186.789062 L 152.558594 -177.761719 L 114.859375 -47.710938 C 111.199219 -35.070312 106.300781 -24.722656 100.164062 -16.667969 C 95.640625 -10.726562 90.390625 -6.0625 84.410156 -2.667969 C 77.3125 1.359375 69.699219 3.371094 61.570312 3.371094 C 50.527344 3.371094 40.535156 0.578125 31.585938 -5.015625 L -13.09375 -32.941406 L 31.964844 -60.25 C 32.324219 -60.464844 32.71875 -61.339844 33.15625 -62.871094 C 33.710938 -64.800781 33.984375 -66.675781 33.984375 -68.488281 C 33.984375 -69.679688 33.894531 -70.539062 33.710938 -71.066406 C 33.734375 -70.992188 33.792969 -70.90625 33.875 -70.8125 C 34.554688 -70.046875 35.324219 -69.496094 36.175781 -69.164062 L 36.144531 -69.140625 C 35.648438 -69.226562 35.015625 -69.269531 34.246094 -69.269531 C 32.304688 -69.269531 30.550781 -68.695312 28.980469 -67.550781 C 27.6875 -66.605469 26.574219 -64.523438 25.648438 -61.308594 C 25.09375 -59.378906 24.820312 -57.390625 24.820312 -55.34375 C 24.820312 -51.867188 25.933594 -48.558594 28.164062 -45.417969 C 30.824219 -41.675781 35.484375 -38.402344 42.148438 -35.601562 C 50.464844 -32.101562 61.320312 -30.351562 74.714844 -30.351562 C 94.300781 -30.351562 109.574219 -34.273438 120.535156 -42.113281 C 130.976562 -49.582031 138.625 -61.898438 143.480469 -79.054688 L 177.558594 -199.34375 C 180.589844 -209.300781 184.890625 -217.34375 190.46875 -223.476562 C 195.125 -228.601562 200.820312 -233.058594 207.558594 -236.847656 L 223.457031 -208.582031 L 200.527344 -231.511719 C 203.128906 -234.113281 206.269531 -236.441406 209.957031 -238.488281 C 208.347656 -237.59375 207.105469 -236.710938 206.234375 -235.835938 C 204.558594 -234.160156 203.246094 -232.21875 202.296875 -230.003906 L 232.105469 -217.230469 L 201.738281 -228.617188 C 201.054688 -226.789062 200.710938 -224.492188 200.710938 -221.726562 C 200.710938 -216.679688 202.082031 -212.011719 204.820312 -207.726562 C 206.855469 -204.542969 209.347656 -202.050781 212.300781 -200.253906 C 214.09375 -199.160156 215.839844 -198.433594 217.535156 -198.066406 C 217.851562 -198 218.113281 -197.957031 218.316406 -197.9375 C 218.25 -197.941406 218.117188 -197.945312 217.921875 -197.945312 L 119.683594 -197.945312 C 118.101562 -197.945312 116.917969 -197.894531 116.132812 -197.789062 C 116.785156 -197.875 117.746094 -198.183594 119.011719 -198.710938 C 122.804688 -200.292969 126.007812 -202.734375 128.621094 -206.042969 C 130.871094 -208.894531 132.351562 -211.972656 133.058594 -215.277344 L 132.871094 -214.402344 L 132.636719 -213.539062 C 133.589844 -217.027344 133.71875 -220.648438 133.027344 -224.402344 C 132.226562 -228.738281 130.460938 -232.585938 127.730469 -235.949219 C 127.449219 -236.292969 127.195312 -236.582031 126.964844 -236.816406 L 127.019531 -236.773438 C 127.519531 -236.328125 128.238281 -235.765625 129.175781 -235.078125 L 110 -208.929688 L 127.988281 -235.910156 C 134.65625 -231.464844 139.953125 -226.933594 143.875 -222.320312 C 150.980469 -213.960938 154.535156 -203.960938 154.535156 -192.324219 C 154.535156 -186.511719 153.75 -181.246094 152.179688 -176.535156 Z M 152.179688 -176.535156 "/></g></g><g style="fill:#6f8bbd;fill-opacity:1;"><g transform="translate(131.245965, 477.646564)"><path style="stroke:none" d="M 121.40625 -186.796875 C 121.875 -188.171875 122.109375 -190.015625 122.109375 -192.328125 C 122.109375 -196.015625 121.125 -199.007812 119.15625 -201.3125 C 117.195312 -203.625 114.144531 -206.160156 110 -208.921875 C 106.539062 -211.460938 104.0625 -213.65625 102.5625 -215.5 C 101.0625 -217.34375 100.65625 -219.535156 101.34375 -222.078125 C 102.039062 -225.304688 103.769531 -227.492188 106.53125 -228.640625 C 109.300781 -229.796875 113.6875 -230.375 119.6875 -230.375 L 217.921875 -230.375 C 222.765625 -230.375 226.507812 -229.566406 229.15625 -227.953125 C 231.8125 -226.335938 233.140625 -224.257812 233.140625 -221.71875 C 233.140625 -220.570312 232.796875 -219.078125 232.109375 -217.234375 C 231.410156 -215.617188 230.425781 -214.175781 229.15625 -212.90625 C 227.894531 -211.632812 226.742188 -210.707031 225.703125 -210.125 C 224.660156 -209.550781 223.910156 -209.035156 223.453125 -208.578125 C 219.765625 -206.503906 216.765625 -204.195312 214.453125 -201.65625 C 212.148438 -199.125 210.191406 -195.207031 208.578125 -189.90625 L 174.6875 -70.21875 C 167.769531 -45.769531 156.007812 -27.609375 139.40625 -15.734375 C 122.800781 -3.859375 101.238281 2.078125 74.71875 2.078125 C 56.957031 2.078125 41.90625 -0.515625 29.5625 -5.703125 C 17.226562 -10.890625 7.945312 -17.863281 1.71875 -26.625 C -4.5 -35.394531 -7.609375 -44.96875 -7.609375 -55.34375 C -7.609375 -60.414062 -6.914062 -65.375 -5.53125 -70.21875 C -2.53125 -80.59375 2.597656 -88.429688 9.859375 -93.734375 C 17.117188 -99.046875 25.25 -101.703125 34.25 -101.703125 C 44.625 -101.703125 52.578125 -98.585938 58.109375 -92.359375 C 63.640625 -86.128906 66.40625 -78.171875 66.40625 -68.484375 C 66.40625 -63.640625 65.71875 -58.800781 64.34375 -53.96875 C 61.570312 -44.28125 56.378906 -37.128906 48.765625 -32.515625 C 52.460938 -30.210938 56.734375 -29.0625 61.578125 -29.0625 C 66.410156 -29.0625 70.671875 -31.476562 74.359375 -36.3125 C 78.054688 -41.15625 81.171875 -47.960938 83.703125 -56.734375 Z M 121.40625 -186.796875 "/></g></g><g style="fill:#ffffff;fill-opacity:1;"><g transform="translate(408.59777, 477.646564)"><path style="stroke:none" d="M 198.203125 -121.671875 C 212.195312 -121.671875 223.8125 -118.007812 233.058594 -110.675781 C 238.878906 -106.054688 243.289062 -100.390625 246.28125 -93.679688 C 248.996094 -87.601562 250.351562 -81.050781 250.351562 -74.023438 C 250.351562 -69.054688 249.625 -63.902344 248.171875 -58.574219 L 236.679688 -17.832031 C 231.457031 -0.542969 223.179688 12.199219 211.851562 20.394531 C 200.761719 28.417969 186.410156 32.429688 168.804688 32.429688 L 6.226562 32.429688 C -4.679688 32.429688 -14.046875 30.046875 -21.875 25.28125 C -27.71875 21.722656 -32.339844 17.136719 -35.742188 11.515625 C -39.527344 5.261719 -41.421875 -1.578125 -41.421875 -8.992188 C -41.421875 -14.816406 -40.203125 -20.570312 -37.761719 -26.265625 L -7.957031 -13.492188 L -38.320312 -24.875 C -35.503906 -32.390625 -30.90625 -38.652344 -24.53125 -43.660156 C -22.003906 -45.644531 -19.324219 -47.523438 -16.496094 -49.292969 C -15.121094 -50.152344 -14.222656 -50.804688 -13.796875 -51.246094 C -14.921875 -50.066406 -15.722656 -48.988281 -16.203125 -48.015625 C -16.058594 -48.3125 -15.84375 -48.941406 -15.566406 -49.898438 L 26.664062 -199.089844 L 26.773438 -199.441406 L 26.78125 -199.4375 C 26.742188 -199.179688 26.722656 -198.886719 26.722656 -198.550781 C 26.722656 -196.292969 27.332031 -193.851562 28.554688 -191.238281 C 28.222656 -191.949219 27.652344 -192.976562 26.847656 -194.320312 L 54.652344 -211.003906 L 27.992188 -192.542969 C 22.070312 -201.09375 19.113281 -209.667969 19.113281 -218.269531 C 19.113281 -221.621094 19.664062 -225.511719 20.769531 -229.9375 L 20.980469 -230.78125 L 21.238281 -231.609375 C 23.183594 -237.9375 26.398438 -243.46875 30.878906 -248.207031 C 35.101562 -252.671875 40.160156 -256.105469 46.050781 -258.503906 C 53.085938 -261.371094 61.949219 -262.804688 72.640625 -262.804688 L 153.929688 -262.804688 C 164.457031 -262.804688 173.523438 -260.65625 181.128906 -256.355469 C 187.261719 -252.890625 192.117188 -248.277344 195.695312 -242.523438 C 199.617188 -236.214844 201.578125 -229.28125 201.578125 -221.726562 C 201.578125 -216.652344 200.542969 -211.359375 198.476562 -205.84375 L 198.210938 -205.144531 L 197.917969 -204.457031 C 195.585938 -199.015625 192.3125 -194.1875 188.101562 -189.976562 C 184.691406 -186.566406 181.144531 -183.835938 177.460938 -181.789062 C 179.070312 -182.683594 180.714844 -183.972656 182.394531 -185.652344 L 179.246094 -182.5 L 175.363281 -180.316406 C 174.871094 -180.042969 174.488281 -179.800781 174.21875 -179.59375 L 174.195312 -179.574219 C 174.273438 -179.648438 174.363281 -179.738281 174.464844 -179.851562 C 175.316406 -180.789062 175.921875 -181.613281 176.273438 -182.320312 C 176.109375 -181.988281 175.890625 -181.371094 175.613281 -180.460938 L 131.15625 -24.324219 L 99.96875 -33.207031 L 99.96875 -65.636719 L 121.414062 -65.636719 C 121.898438 -65.636719 122.21875 -65.652344 122.371094 -65.683594 C 121.96875 -65.601562 121.488281 -65.425781 120.929688 -65.152344 C 120.246094 -64.824219 119.8125 -64.578125 119.636719 -64.421875 C 120.238281 -64.949219 121 -65.769531 121.914062 -66.886719 L 146.066406 -95.59375 C 153.046875 -103.683594 160.164062 -109.796875 167.414062 -113.941406 C 176.433594 -119.09375 186.699219 -121.671875 198.203125 -121.671875 Z M 198.203125 -56.816406 C 197.929688 -56.816406 197.703125 -56.804688 197.527344 -56.785156 C 197.503906 -56.785156 197.492188 -56.78125 197.488281 -56.78125 C 197.527344 -56.789062 197.574219 -56.800781 197.632812 -56.8125 C 198.234375 -56.953125 198.886719 -57.226562 199.59375 -57.628906 C 198.773438 -57.160156 197.472656 -55.894531 195.691406 -53.835938 L 172.109375 -25.816406 C 164.941406 -17.058594 157.316406 -10.71875 149.226562 -6.792969 C 140.953125 -2.785156 131.683594 -0.777344 121.414062 -0.777344 L 57.015625 -0.777344 L 113.566406 -199.34375 C 116.59375 -209.300781 120.898438 -217.34375 126.472656 -223.476562 C 131.132812 -228.601562 136.828125 -233.058594 143.566406 -236.847656 L 159.464844 -208.582031 L 136.53125 -231.511719 C 139.136719 -234.113281 142.277344 -236.441406 145.964844 -238.488281 C 144.355469 -237.59375 143.113281 -236.710938 142.238281 -235.835938 C 140.566406 -234.160156 139.253906 -232.21875 138.304688 -230.003906 L 168.109375 -217.230469 L 137.746094 -228.617188 C 137.0625 -226.789062 136.71875 -224.492188 136.71875 -221.726562 C 136.71875 -216.9375 138.019531 -212.457031 140.613281 -208.28125 C 142.867188 -204.65625 145.730469 -201.863281 149.214844 -199.894531 C 150.898438 -198.945312 152.496094 -198.316406 154.011719 -198.011719 C 154.246094 -197.964844 154.421875 -197.9375 154.535156 -197.929688 C 154.402344 -197.941406 154.199219 -197.945312 153.929688 -197.945312 L 72.640625 -197.945312 C 70.839844 -197.945312 69.449219 -197.878906 68.46875 -197.75 L 68.527344 -197.777344 C 69.125 -197.921875 69.789062 -198.140625 70.519531 -198.441406 C 73.296875 -199.570312 75.789062 -201.304688 77.996094 -203.636719 C 80.457031 -206.238281 82.203125 -209.207031 83.226562 -212.535156 L 52.230469 -222.074219 L 83.691406 -214.207031 C 83.644531 -214.023438 83.609375 -213.875 83.585938 -213.761719 C 83.589844 -213.78125 83.601562 -213.839844 83.617188 -213.9375 C 83.851562 -215.21875 83.96875 -216.664062 83.96875 -218.269531 C 83.96875 -221.78125 83.355469 -224.972656 82.125 -227.84375 C 81.785156 -228.632812 81.515625 -229.171875 81.316406 -229.460938 L 81.917969 -228.59375 L 82.460938 -227.6875 C 84.421875 -224.417969 86.042969 -221.410156 87.324219 -218.664062 C 90.160156 -212.589844 91.578125 -205.882812 91.578125 -198.550781 C 91.578125 -192.53125 90.640625 -186.472656 88.761719 -180.367188 L 57.765625 -189.902344 L 88.96875 -181.070312 L 46.699219 -31.738281 C 43.609375 -21.152344 39.101562 -12.746094 33.167969 -6.519531 C 28.980469 -2.121094 23.882812 1.953125 17.878906 5.707031 C 17.019531 6.246094 16.238281 6.789062 15.539062 7.339844 C 18.683594 4.867188 20.972656 1.71875 22.40625 -2.105469 L 22.144531 -1.402344 L 21.851562 -0.714844 C 22.90625 -3.179688 23.433594 -5.941406 23.433594 -8.992188 C 23.433594 -13.644531 22.203125 -18 19.742188 -22.066406 C 17.667969 -25.496094 15.035156 -28.179688 11.84375 -30.121094 C 10.050781 -31.214844 8.308594 -31.941406 6.613281 -32.308594 C 6.296875 -32.375 6.035156 -32.417969 5.832031 -32.4375 C 5.898438 -32.433594 6.027344 -32.429688 6.226562 -32.429688 L 168.804688 -32.429688 C 171.5 -32.429688 173.589844 -32.609375 175.0625 -32.96875 C 175.210938 -33.007812 175.328125 -33.039062 175.414062 -33.066406 C 175.398438 -33.0625 175.355469 -33.042969 175.289062 -33.015625 C 174.84375 -32.820312 174.359375 -32.535156 173.835938 -32.15625 C 173.273438 -31.746094 172.804688 -31.335938 172.4375 -30.917969 C 172.355469 -30.828125 172.296875 -30.753906 172.253906 -30.699219 C 172.273438 -30.726562 172.308594 -30.78125 172.359375 -30.863281 C 173.035156 -31.972656 173.667969 -33.5 174.257812 -35.4375 L 185.597656 -75.636719 C 185.527344 -75.382812 185.492188 -74.84375 185.492188 -74.023438 C 185.492188 -71.839844 186.011719 -69.585938 187.054688 -67.253906 C 188.375 -64.289062 190.277344 -61.824219 192.753906 -59.859375 C 194.570312 -58.417969 196.40625 -57.445312 198.253906 -56.945312 C 198.574219 -56.859375 198.824219 -56.804688 198.996094 -56.785156 C 198.824219 -56.804688 198.5625 -56.816406 198.203125 -56.816406 Z M 198.203125 -56.816406 "/></g></g><g style="fill:#6f8bbd;fill-opacity:1;"><g transform="translate(408.59777, 477.646564)"><path style="stroke:none" d="M 198.203125 -89.25 C 204.660156 -89.25 209.5625 -87.921875 212.90625 -85.265625 C 216.25 -82.609375 217.921875 -78.863281 217.921875 -74.03125 C 217.921875 -71.945312 217.578125 -69.640625 216.890625 -67.109375 L 205.46875 -26.640625 C 202.46875 -16.722656 198.257812 -9.800781 192.84375 -5.875 C 187.425781 -1.957031 179.410156 0 168.796875 0 L 6.21875 0 C 1.382812 0 -2.359375 -0.804688 -5.015625 -2.421875 C -7.671875 -4.035156 -9 -6.226562 -9 -9 C -9 -10.375 -8.648438 -11.867188 -7.953125 -13.484375 C -7.265625 -15.328125 -6.113281 -16.882812 -4.5 -18.15625 C -2.882812 -19.425781 -1.15625 -20.640625 0.6875 -21.796875 C 4.375 -24.097656 7.367188 -26.457031 9.671875 -28.875 C 11.984375 -31.300781 13.945312 -35.28125 15.5625 -40.8125 L 57.765625 -189.90625 C 58.691406 -192.90625 59.15625 -195.785156 59.15625 -198.546875 C 59.15625 -201.085938 58.75 -203.222656 57.9375 -204.953125 C 57.132812 -206.679688 56.039062 -208.695312 54.65625 -211 C 52.582031 -214 51.546875 -216.421875 51.546875 -218.265625 C 51.546875 -218.953125 51.773438 -220.222656 52.234375 -222.078125 C 53.148438 -225.066406 55.164062 -227.195312 58.28125 -228.46875 C 61.394531 -229.738281 66.179688 -230.375 72.640625 -230.375 L 153.921875 -230.375 C 158.765625 -230.375 162.507812 -229.625 165.15625 -228.125 C 167.8125 -226.625 169.140625 -224.488281 169.140625 -221.71875 C 169.140625 -220.570312 168.796875 -219.078125 168.109375 -217.234375 C 167.421875 -215.617188 166.441406 -214.175781 165.171875 -212.90625 C 163.898438 -211.632812 162.742188 -210.707031 161.703125 -210.125 C 160.671875 -209.550781 159.925781 -209.035156 159.46875 -208.578125 C 155.769531 -206.503906 152.769531 -204.195312 150.46875 -201.65625 C 148.164062 -199.125 146.207031 -195.207031 144.59375 -189.90625 L 99.96875 -33.203125 L 121.40625 -33.203125 C 126.71875 -33.203125 131.273438 -34.125 135.078125 -35.96875 C 138.878906 -37.8125 142.859375 -41.269531 147.015625 -46.34375 L 170.875 -74.71875 C 175.257812 -79.789062 179.46875 -83.476562 183.5 -85.78125 C 187.539062 -88.09375 192.441406 -89.25 198.203125 -89.25 Z M 198.203125 -89.25 "/></g></g><g style="fill:#ffffff;fill-opacity:1;"><g transform="translate(299.708851, 419.990743)"><path style="stroke:none" d="M 116.777344 -137.992188 C 122.625 -137.992188 128.09375 -136.941406 133.183594 -134.839844 C 138.464844 -132.660156 143.117188 -129.445312 147.148438 -125.191406 C 151.035156 -121.085938 153.972656 -116.445312 155.953125 -111.269531 C 157.867188 -106.277344 158.824219 -100.945312 158.824219 -95.28125 C 158.824219 -90.441406 158.085938 -85.574219 156.617188 -80.671875 C 153.609375 -71.371094 148.871094 -64.160156 142.402344 -59.042969 C 135.449219 -53.546875 127.574219 -50.796875 118.769531 -50.796875 C 109.679688 -50.796875 101.128906 -53.601562 93.121094 -59.207031 L 105.03125 -76.226562 L 119.261719 -61.089844 L 108.179688 -50.675781 L 93.953125 -65.8125 L 113.449219 -72.980469 C 116.90625 -63.578125 119.667969 -56.75 121.730469 -52.496094 C 122.617188 -50.664062 123.363281 -49.253906 123.972656 -48.261719 C 124.117188 -48.027344 124.207031 -47.886719 124.242188 -47.835938 C 123.964844 -48.203125 123.585938 -48.617188 123.109375 -49.074219 C 121.976562 -50.148438 120.644531 -51.003906 119.113281 -51.636719 C 117.421875 -52.332031 115.683594 -52.683594 113.894531 -52.683594 C 112.34375 -52.683594 110.910156 -52.480469 109.597656 -52.082031 C 109.152344 -51.945312 108.820312 -51.820312 108.59375 -51.707031 C 113.144531 -53.984375 117.496094 -55.121094 121.652344 -55.121094 C 125.652344 -55.121094 129.394531 -54.160156 132.882812 -52.242188 C 135.960938 -50.550781 138.554688 -48.25 140.667969 -45.347656 C 143.90625 -40.890625 145.527344 -35.746094 145.527344 -29.914062 C 145.527344 -27.804688 145.246094 -25.339844 144.679688 -22.515625 L 144.613281 -22.171875 L 144.53125 -21.832031 C 142.511719 -13.242188 138.332031 -5.539062 132 1.285156 C 126.285156 7.4375 119.515625 12.308594 111.695312 15.894531 C 103.628906 19.589844 95.351562 21.4375 86.863281 21.4375 C 79.03125 21.4375 72.003906 20.34375 65.785156 18.15625 C 58.257812 15.507812 51.214844 10.316406 44.652344 2.582031 C 39.210938 -3.832031 33.941406 -12.839844 28.84375 -24.4375 L 47.863281 -32.796875 L 66.832031 -24.328125 L 61.292969 -11.917969 C 56.484375 -1.296875 51.144531 6.589844 45.277344 11.738281 C 37.738281 18.351562 28.925781 21.660156 18.835938 21.660156 C 12.988281 21.660156 7.523438 20.671875 2.441406 18.695312 C -2.929688 16.605469 -7.679688 13.5 -11.808594 9.371094 C -15.910156 5.269531 -19.007812 0.566406 -21.097656 -4.730469 C -23.097656 -9.804688 -24.097656 -15.242188 -24.097656 -21.050781 C -24.097656 -26.140625 -23.332031 -31.105469 -21.804688 -35.949219 C -18.855469 -45.058594 -14.148438 -52.171875 -7.675781 -57.289062 C -0.726562 -62.785156 7.152344 -65.535156 15.953125 -65.535156 C 25.046875 -65.535156 33.597656 -62.730469 41.605469 -57.125 L 29.691406 -40.105469 L 15.464844 -55.242188 L 26.542969 -65.660156 L 40.773438 -50.523438 L 21.183594 -43.609375 C 17.824219 -53.121094 15.15625 -60.089844 13.171875 -64.523438 C 12.386719 -66.273438 11.726562 -67.605469 11.1875 -68.511719 C 11.117188 -68.625 11.0625 -68.71875 11.015625 -68.785156 C 11.023438 -68.773438 11.046875 -68.742188 11.085938 -68.691406 C 11.457031 -68.199219 11.941406 -67.679688 12.542969 -67.136719 C 14.949219 -64.960938 17.859375 -63.871094 21.273438 -63.871094 C 22.878906 -63.871094 24.375 -64.089844 25.757812 -64.523438 C 26.289062 -64.691406 26.714844 -64.859375 27.035156 -65.027344 C 22.464844 -62.632812 18.03125 -61.433594 13.738281 -61.433594 C 10.113281 -61.433594 6.699219 -62.179688 3.5 -63.675781 C -0.214844 -65.40625 -3.265625 -67.949219 -5.660156 -71.296875 C -8.792969 -75.683594 -10.359375 -80.871094 -10.359375 -86.863281 C -10.359375 -88.675781 -10.078125 -90.996094 -9.511719 -93.816406 L -9.414062 -94.300781 L -9.296875 -94.78125 C -6.144531 -107.382812 1.179688 -117.820312 12.679688 -126.101562 C 23.691406 -134.03125 35.640625 -137.992188 48.527344 -137.992188 C 56.511719 -137.992188 63.773438 -136.6875 70.3125 -134.070312 C 77.628906 -131.144531 84.441406 -125.898438 90.746094 -118.332031 C 96.039062 -111.976562 101.148438 -103.265625 106.066406 -92.195312 L 87.082031 -83.761719 L 68.101562 -92.195312 L 74.304688 -106.15625 C 78.929688 -116.25 84.222656 -123.78125 90.183594 -128.746094 C 97.578125 -134.910156 106.445312 -137.992188 116.777344 -137.992188 Z M 116.777344 -96.445312 C 116.363281 -96.445312 116.117188 -96.433594 116.035156 -96.402344 C 116.296875 -96.492188 116.546875 -96.632812 116.78125 -96.828125 C 116.515625 -96.605469 116.082031 -96.050781 115.480469 -95.164062 C 114.421875 -93.601562 113.355469 -91.640625 112.273438 -89.28125 L 87.082031 -32.609375 L 68.101562 -75.324219 C 64.746094 -82.867188 61.65625 -88.339844 58.828125 -91.734375 C 57.691406 -93.097656 56.652344 -94.152344 55.714844 -94.90625 C 55.285156 -95.246094 55.007812 -95.445312 54.882812 -95.496094 C 53.296875 -96.128906 51.179688 -96.445312 48.527344 -96.445312 C 44.574219 -96.445312 40.71875 -95.09375 36.957031 -92.382812 C 33.683594 -90.027344 31.703125 -87.46875 31.011719 -84.703125 L 10.859375 -89.742188 L 31.226562 -85.667969 C 31.140625 -85.234375 31.085938 -84.929688 31.058594 -84.757812 C 31.144531 -85.324219 31.1875 -86.023438 31.1875 -86.863281 C 31.1875 -87.710938 31.070312 -88.636719 30.832031 -89.636719 C 30.34375 -91.691406 29.449219 -93.628906 28.148438 -95.445312 C 26.3125 -98.019531 23.953125 -99.980469 21.070312 -101.324219 C 18.699219 -102.429688 16.257812 -102.984375 13.738281 -102.984375 C 11.933594 -102.984375 10.269531 -102.730469 8.746094 -102.222656 C 8.300781 -102.070312 7.96875 -101.941406 7.753906 -101.828125 C 12.324219 -104.222656 16.832031 -105.421875 21.273438 -105.421875 C 28.527344 -105.421875 34.910156 -102.929688 40.417969 -97.945312 C 44.128906 -94.589844 47.683594 -89.109375 51.089844 -81.503906 C 53.539062 -76.039062 56.628906 -68.015625 60.363281 -57.4375 L 64.871094 -44.664062 L 31.617188 -13.402344 L 17.78125 -23.089844 C 16.925781 -23.6875 16.316406 -23.988281 15.953125 -23.988281 C 16.78125 -23.988281 17.492188 -24.222656 18.09375 -24.699219 C 18.335938 -24.890625 18.488281 -25.03125 18.542969 -25.121094 C 18.296875 -24.730469 18.054688 -24.171875 17.816406 -23.4375 C 17.570312 -22.664062 17.449219 -21.871094 17.449219 -21.050781 C 17.449219 -20.507812 17.484375 -20.148438 17.554688 -19.976562 L 17.570312 -20.007812 L 17.601562 -19.972656 C 17.566406 -19.996094 17.53125 -20.015625 17.5 -20.027344 C 17.738281 -19.933594 18.183594 -19.886719 18.835938 -19.886719 C 18.496094 -19.886719 18.175781 -19.753906 17.875 -19.492188 C 18.25 -19.824219 18.816406 -20.566406 19.566406 -21.722656 C 20.785156 -23.589844 22.046875 -25.96875 23.355469 -28.855469 L 48.015625 -84.09375 L 66.882812 -41.152344 C 70.351562 -33.25 73.503906 -27.632812 76.332031 -24.296875 C 77.460938 -22.96875 78.464844 -21.964844 79.34375 -21.285156 C 79.570312 -21.113281 79.75 -20.988281 79.882812 -20.910156 C 79.828125 -20.941406 79.726562 -20.984375 79.574219 -21.035156 C 81.332031 -20.417969 83.761719 -20.109375 86.863281 -20.109375 C 89.304688 -20.109375 91.8125 -20.699219 94.382812 -21.875 C 97.195312 -23.167969 99.585938 -24.871094 101.554688 -26.988281 C 102.902344 -28.4375 103.746094 -29.894531 104.089844 -31.347656 L 124.3125 -26.589844 L 103.941406 -30.664062 C 104 -30.960938 104.035156 -31.167969 104.050781 -31.273438 C 104.003906 -30.917969 103.980469 -30.464844 103.980469 -29.914062 C 103.980469 -26.742188 105.007812 -23.738281 107.066406 -20.910156 C 108.589844 -18.816406 110.519531 -17.125 112.859375 -15.839844 C 115.605469 -14.328125 118.539062 -13.570312 121.652344 -13.570312 C 123.394531 -13.570312 124.988281 -13.808594 126.441406 -14.277344 C 126.808594 -14.394531 127.050781 -14.484375 127.175781 -14.546875 C 122.625 -12.273438 118.199219 -11.132812 113.894531 -11.132812 C 110.1875 -11.132812 106.640625 -11.835938 103.25 -13.234375 C 100.019531 -14.570312 97.097656 -16.476562 94.492188 -18.953125 C 91.1875 -22.089844 87.808594 -27.226562 84.34375 -34.367188 C 81.683594 -39.859375 78.386719 -47.953125 74.457031 -58.644531 L 69.714844 -71.539062 L 103.109375 -102.929688 L 116.945312 -93.246094 C 117.800781 -92.644531 118.410156 -92.347656 118.769531 -92.347656 C 117.945312 -92.347656 117.234375 -92.109375 116.632812 -91.636719 C 116.386719 -91.441406 116.238281 -91.300781 116.179688 -91.210938 C 116.429688 -91.601562 116.644531 -92.066406 116.820312 -92.609375 C 117.125 -93.617188 117.273438 -94.507812 117.273438 -95.28125 C 117.273438 -95.824219 117.234375 -96.199219 117.152344 -96.410156 C 117.140625 -96.441406 117.085938 -96.511719 116.984375 -96.617188 C 117.023438 -96.574219 117.136719 -96.515625 117.320312 -96.441406 C 117.378906 -96.417969 117.414062 -96.402344 117.417969 -96.402344 C 117.261719 -96.429688 117.050781 -96.445312 116.777344 -96.445312 Z M 116.777344 -96.445312 "/></g></g><g style="fill:#6f8bbd;fill-opacity:1;"><g transform="translate(299.708851, 419.990743)"><path style="stroke:none" d="M 116.78125 -117.21875 C 122.988281 -117.21875 128.082031 -115.113281 132.0625 -110.90625 C 136.050781 -106.695312 138.046875 -101.488281 138.046875 -95.28125 C 138.046875 -92.476562 137.601562 -89.597656 136.71875 -86.640625 C 135.09375 -81.617188 132.691406 -77.851562 129.515625 -75.34375 C 126.335938 -72.832031 122.757812 -71.578125 118.78125 -71.578125 C 114.050781 -71.578125 109.46875 -73.128906 105.03125 -76.234375 L 93.953125 -65.8125 C 97.648438 -55.769531 100.679688 -48.3125 103.046875 -43.4375 C 105.410156 -38.5625 107.328125 -35.421875 108.796875 -34.015625 C 110.273438 -32.609375 111.976562 -31.90625 113.90625 -31.90625 C 114.9375 -31.90625 116.265625 -32.3125 117.890625 -33.125 C 119.515625 -33.9375 120.769531 -34.34375 121.65625 -34.34375 C 122.539062 -34.34375 123.273438 -33.9375 123.859375 -33.125 C 124.453125 -32.3125 124.75 -31.242188 124.75 -29.921875 C 124.75 -29.179688 124.601562 -28.070312 124.3125 -26.59375 C 123.132812 -21.570312 120.625 -16.988281 116.78125 -12.84375 C 112.9375 -8.707031 108.351562 -5.421875 103.03125 -2.984375 C 97.71875 -0.546875 92.328125 0.671875 86.859375 0.671875 C 81.398438 0.671875 76.675781 -0.03125 72.6875 -1.4375 C 68.695312 -2.84375 64.632812 -5.984375 60.5 -10.859375 C 56.363281 -15.734375 52.148438 -23.046875 47.859375 -32.796875 L 42.328125 -20.390625 C 38.773438 -12.554688 35.1875 -7.050781 31.5625 -3.875 C 27.945312 -0.695312 23.703125 0.890625 18.828125 0.890625 C 12.328125 0.890625 7.007812 -1.175781 2.875 -5.3125 C -1.257812 -9.445312 -3.328125 -14.691406 -3.328125 -21.046875 C -3.328125 -24.003906 -2.882812 -26.882812 -2 -29.6875 C -0.375 -34.71875 2.023438 -38.488281 5.203125 -41 C 8.378906 -43.507812 11.960938 -44.765625 15.953125 -44.765625 C 20.679688 -44.765625 25.257812 -43.210938 29.6875 -40.109375 L 40.765625 -50.515625 C 37.222656 -60.566406 34.34375 -68.066406 32.125 -73.015625 C 29.914062 -77.960938 28.035156 -81.140625 26.484375 -82.546875 C 24.929688 -83.953125 23.191406 -84.65625 21.265625 -84.65625 C 20.234375 -84.65625 18.941406 -84.25 17.390625 -83.4375 C 15.835938 -82.625 14.617188 -82.21875 13.734375 -82.21875 C 11.523438 -82.21875 10.421875 -83.765625 10.421875 -86.859375 C 10.421875 -87.304688 10.566406 -88.269531 10.859375 -89.75 C 12.773438 -97.425781 17.425781 -103.921875 24.8125 -109.234375 C 32.195312 -114.554688 40.101562 -117.21875 48.53125 -117.21875 C 53.84375 -117.21875 58.53125 -116.40625 62.59375 -114.78125 C 66.65625 -113.15625 70.71875 -109.90625 74.78125 -105.03125 C 78.84375 -100.15625 82.945312 -93.066406 87.09375 -83.765625 L 93.296875 -97.71875 C 96.546875 -104.8125 99.941406 -109.832031 103.484375 -112.78125 C 107.023438 -115.738281 111.457031 -117.21875 116.78125 -117.21875 Z M 116.78125 -117.21875 "/></g></g></g></svg>